<svg width="121" height="120" viewBox="0 0 121 120" fill="none" xmlns="http://www.w3.org/2000/svg">
<rect x="0.5" width="120" height="120" rx="8" fill="#B7FFE1" fill-opacity="0.08"/>
<rect x="1" y="0.5" width="119" height="119" rx="7.5" stroke="white" stroke-opacity="0.04"/>
<path fill-rule="evenodd" clip-rule="evenodd" d="M76.9031 54.0751C77.6765 48.904 73.7395 46.1243 68.356 44.27L70.1025 37.2652L65.8385 36.2027L64.1384 43.023C63.0174 42.7435 61.8662 42.48 60.722 42.2189L62.4345 35.3535L58.1731 34.291L56.4257 41.2935C55.4981 41.0823 54.587 40.8736 53.703 40.6536L53.708 40.6316L47.8278 39.1632L46.6935 43.7174C46.6935 43.7174 49.857 44.4426 49.7904 44.4872C51.5171 44.9182 51.8293 46.0612 51.7775 46.9672L49.7881 54.9473C49.907 54.9775 50.0612 55.0212 50.2314 55.0895L50.1076 55.0586L50.1074 55.0586C50.0023 55.0323 49.8929 55.0049 49.7807 54.9781L46.9923 66.157C46.7813 66.6816 46.2456 67.4689 45.0384 67.1699C45.0812 67.2318 41.9393 66.3965 41.9393 66.3965L39.8223 71.2774L45.3712 72.6607C45.9789 72.8131 46.5794 72.9697 47.1738 73.1246C47.5892 73.2329 48.0015 73.3404 48.4113 73.4451L46.6468 80.5302L50.9059 81.5927L52.6533 74.5828C53.8168 74.8987 54.9459 75.1901 56.0514 75.4647L54.3099 82.4416L58.5741 83.504L60.3384 76.4322C67.6094 77.8083 73.0767 77.2535 75.3779 70.6769C77.2322 65.3819 75.2856 62.3277 71.4603 60.3361C74.2465 59.6935 76.345 57.8611 76.9046 54.0757L76.9033 54.0747L76.9031 54.0751ZM67.1608 67.7363C65.9518 72.5942 58.3477 70.5858 54.8686 69.6669L54.8685 69.6669C54.5556 69.5842 54.276 69.5104 54.0375 69.4512L56.379 60.0646C56.6697 60.1372 57.025 60.217 57.4275 60.3073C61.0262 61.1149 68.3995 62.7696 67.161 67.7363H67.1608ZM58.1493 55.9509C61.0498 56.725 67.3774 58.4137 68.4794 53.9984H68.4798C69.6051 49.4826 63.4557 48.1212 60.4524 47.4562C60.1145 47.3814 59.8164 47.3155 59.573 47.2548L57.4501 55.7678C57.6506 55.8178 57.8858 55.8805 58.1493 55.9509Z" fill="#F7931A"/>
</svg>
