<svg viewBox="0 0 117 56" fill="currentColor" xmlns="http://www.w3.org/2000/svg" class="ui-icon_root__0qYp5 ui-icon_introLogo__NGIPX" stroke="none"><path d="M5.135 26.31h3.394c.547 0 1.017-.147 1.412-.44.406-.305.61-.756.61-1.353 0-.534-.146-.897-.439-1.087-.28-.204-.66-.305-1.144-.305H5.802l-.667 3.184Zm-1.736-5.512h5.722c.686 0 1.303.044 1.85.133.546.09 1.01.255 1.392.496.38.23.673.553.877.973.203.407.305.934.305 1.583 0 .381-.057.756-.172 1.125a3.11 3.11 0 0 1-.515.972c-.216.28-.483.515-.8.706-.306.19-.662.311-1.069.362v.038c.649.178 1.145.522 1.488 1.03.356.496.534 1.075.534 1.736 0 .737-.146 1.385-.439 1.945a3.942 3.942 0 0 1-1.144 1.392 5.23 5.23 0 0 1-1.66.839 6.673 6.673 0 0 1-1.963.286H.558l2.841-13.616Zm.515 11.29h3.757c.687 0 1.246-.185 1.678-.553.445-.37.668-.916.668-1.64 0-.357-.076-.636-.229-.84a1.297 1.297 0 0 0-.553-.457 2.116 2.116 0 0 0-.763-.21 9.068 9.068 0 0 0-.82-.038H4.715l-.8 3.737Zm16.09-11.29h3.07l2.27 13.616h-2.976l-.438-3.032h-5.092l-1.717 3.032h-3.146l8.028-13.616ZM18.02 29.15h3.643l-.668-5.416h-.038L18.02 29.15Zm77.242-.02L92 20.799h3.07l2.04 5.797 4.234-5.797h3.528l-6.636 8.467-1.05 5.15h-3.012l1.087-5.283Zm17.591-3.604c0-.839-.229-1.468-.687-1.888-.445-.432-1.03-.648-1.754-.648-.763 0-1.43.178-2.003.534a4.427 4.427 0 0 0-1.392 1.354 6.224 6.224 0 0 0-.801 1.85 7.745 7.745 0 0 0-.267 1.983c0 .47.058.915.172 1.335.127.42.311.795.553 1.125.254.318.572.572.954.763.394.19.864.286 1.411.286.407 0 .788-.07 1.144-.21.369-.152.693-.35.973-.591.279-.254.514-.547.705-.877.191-.33.318-.674.382-1.03h2.994c-.306.953-.668 1.76-1.087 2.422-.407.661-.871 1.201-1.393 1.62-.508.408-1.08.7-1.716.878a6.942 6.942 0 0 1-2.04.286c-1.933 0-3.427-.515-4.482-1.544-1.042-1.03-1.564-2.518-1.564-4.463 0-1.106.172-2.155.515-3.146a8.079 8.079 0 0 1 1.469-2.613 7.136 7.136 0 0 1 2.345-1.812c.928-.445 1.964-.667 3.109-.667.788 0 1.519.108 2.193.324a4.73 4.73 0 0 1 1.735.973c.496.42.877.947 1.144 1.582.267.623.395 1.348.382 2.174h-2.994Z" fill="#E3DFD6"></path><path d="m5.135 26.31-.203-.043-.053.25h.256v-.208Zm4.806-.44.123.167h.001l-.124-.166Zm.171-2.44-.122.168.009.006.113-.174Zm-4.31-.305v-.208h-.168l-.035.165.203.043ZM3.4 20.797v-.208h-.168l-.035.166.203.042Zm7.571.133-.033.205.033-.205Zm1.393.496-.112.176.005.002.107-.178Zm.877.973-.187.09.001.003.186-.093Zm.133 2.708.198.063v-.002l-.198-.061Zm-.515.972-.163-.127.163.127Zm-.8.706-.107-.178-.004.002.11.176Zm-1.069.362-.025-.206-.182.023v.183h.207Zm0 .038h-.207v.159l.152.042.055-.2Zm1.488 1.03-.172.116.003.005.169-.12Zm.095 3.68-.184-.095-.001.003.185.093ZM9.77 34.129l-.06-.198.06.198Zm-9.211.286-.203-.042-.052.25h.255v-.208Zm3.356-2.327-.203-.043-.053.251h.256v-.208Zm5.435-.553-.132-.16-.002.003.134.158Zm.439-2.479-.171.118.005.007.166-.125Zm-.553-.457-.093.186.009.003.084-.19Zm-.763-.21.019-.207-.019.207Zm-3.757-.038v-.208h-.167l-.036.164.203.044Zm.42-1.833h3.394v-.415H5.135v.415Zm3.394 0c.586 0 1.101-.158 1.535-.48l-.247-.333c-.354.263-.78.398-1.288.398v.415Zm1.536-.48c.469-.352.693-.87.693-1.52h-.415c0 .545-.182.929-.527 1.188l.25.332Zm.693-1.52c0-.565-.155-1.015-.532-1.261l-.227.348c.207.134.344.41.344.913h.415Zm-.524-1.255c-.327-.238-.756-.345-1.266-.345v.415c.456 0 .79.096 1.022.265l.244-.335Zm-1.266-.345H5.802v.415h3.166v-.415Zm-3.369.165-.667 3.185.406.085.667-3.185-.406-.085Zm-2.2-2.076h5.722v-.416H3.399v.416Zm5.722 0c.677 0 1.283.043 1.816.13l.067-.41a11.787 11.787 0 0 0-1.883-.136v.416Zm1.816.13c.525.086.961.243 1.314.467l.223-.351c-.41-.26-.902-.433-1.47-.525l-.067.41Zm1.319.47c.345.206.61.5.797.884l.373-.18c-.22-.455-.539-.81-.957-1.06l-.213.355Zm.798.887c.184.368.283.86.283 1.49h.415c0-.668-.104-1.23-.327-1.676l-.37.186Zm.283 1.49c0 .36-.054.714-.162 1.063l.396.123c.12-.388.181-.784.181-1.186h-.415Zm-.161 1.061a2.903 2.903 0 0 1-.481.909l.327.255c.244-.311.427-.658.549-1.037l-.395-.127Zm-.482.91c-.2.258-.447.476-.743.654l.213.356c.339-.203.626-.456.859-.757l-.329-.254Zm-.747.656a2.39 2.39 0 0 1-.983.332l.051.412a2.802 2.802 0 0 0 1.152-.392l-.22-.352Zm-1.165.538v.038h.415v-.038h-.415Zm.152.239c.606.166 1.058.482 1.37.945l.345-.232c-.374-.554-.913-.924-1.605-1.114l-.11.4Zm1.374.95c.329.458.495.993.495 1.615h.415c0-.701-.19-1.323-.572-1.857l-.338.242Zm.495 1.615c0 .71-.14 1.324-.415 1.849l.368.192c.31-.594.462-1.276.462-2.041h-.415Zm-.416 1.852a3.735 3.735 0 0 1-1.085 1.32l.252.33c.509-.389.91-.877 1.204-1.464l-.371-.186Zm-1.085 1.32a5.026 5.026 0 0 1-1.594.806l.122.397a5.437 5.437 0 0 0 1.724-.873l-.252-.33Zm-1.594.806a6.468 6.468 0 0 1-1.903.276v.416c.706 0 1.381-.099 2.025-.295l-.122-.397Zm-1.903.276H.558v.416h7.247v-.416Zm-7.044.25L3.603 20.84l-.407-.084L.355 34.371l.406.084Zm3.153-2.161h3.757v-.415H3.914v.415Zm3.757 0c.725 0 1.336-.196 1.813-.603l-.27-.315c-.387.33-.895.503-1.543.503v.415Zm1.81-.6c.505-.419.743-1.031.743-1.8H9.81c0 .68-.206 1.16-.592 1.48l.265.32Zm.743-1.8c0-.384-.082-.713-.27-.964l-.332.249c.117.155.187.386.187.714h.415Zm-.265-.957a1.504 1.504 0 0 0-.64-.53l-.168.38c.194.086.348.214.466.385l.342-.235Zm-.631-.526a2.324 2.324 0 0 0-.837-.23l-.038.413c.257.023.486.087.69.188l.185-.371Zm-.837-.23a9.253 9.253 0 0 0-.839-.04v.415c.26 0 .528.013.801.038l.038-.414Zm-.839-.04H4.715v.415h2.937v-.415Zm-3.14.164-.8 3.738.405.087.801-3.738-.406-.087Zm15.491-7.508v-.208h-.118l-.06.102.178.106Zm3.07 0 .206-.034-.03-.174h-.175v.208Zm2.27 13.616v.208h.245l-.04-.242-.205.034Zm-2.975 0-.205.03.026.178h.18v-.208Zm-.438-3.032.205-.03-.026-.178h-.18v.208Zm-5.092 0v-.208h-.121l-.06.106.18.102Zm-1.717 3.032v.208h.122l.06-.106-.182-.102Zm-3.146 0-.179-.105-.184.313h.363v-.208Zm6.045-5.263-.182-.1-.166.307h.348v-.207Zm3.643 0v.207h.234l-.028-.233-.206.026Zm-.668-5.416.206-.026-.022-.182h-.184v.208Zm-.038 0v-.208h-.123l-.06.109.183.099Zm-.954-2.73h3.07v-.415h-3.07v.416Zm2.866-.173 2.27 13.616.409-.068-2.27-13.616-.409.068Zm2.474 13.374h-2.975v.416h2.975v-.416Zm-2.77.178-.438-3.032-.41.06.438 3.032.41-.06Zm-.643-3.21h-5.092v.415h5.092v-.415Zm-5.273.106-1.716 3.032.361.204 1.716-3.032-.36-.204Zm-1.536 2.926h-3.146v.416h3.146v-.416Zm-2.967.313 8.028-13.616-.357-.21-8.029 13.616.358.21Zm5.866-5.16h3.643v-.416H18.02v.415Zm3.849-.234L21.2 23.71l-.412.051.668 5.416.412-.05Zm-.874-5.598h-.038v.415h.038v-.415Zm-.22.109-2.937 5.416.365.198 2.937-5.416-.365-.198Zm74.487 5.496.203.041.012-.06-.022-.057-.193.076ZM92 20.798v-.208h-.304l.11.284.194-.076Zm3.07 0 .196-.069-.049-.139h-.147v.208Zm2.04 5.797-.195.07.13.371.233-.318-.167-.123Zm4.234-5.797v-.208h-.105l-.063.085.168.123Zm3.528 0 .163.128.263-.336h-.426v.208Zm-6.636 8.467-.164-.128-.03.039-.01.048.204.041Zm-1.05 5.15v.207h.17l.034-.166-.203-.042Zm-3.012 0-.204-.043-.05.25h.254v-.208Zm1.28-5.359-3.261-8.334-.387.152 3.261 8.333.387-.151Zm-3.454-8.05h3.07v-.416h-3.07v.416Zm2.874-.14 2.04 5.798.392-.138-2.04-5.797-.392.138Zm2.404 5.852 4.234-5.798-.336-.245-4.233 5.798.335.245Zm4.066-5.712h3.528v-.416h-3.528v.416Zm3.365-.336-6.637 8.467.327.256 6.636-8.467-.326-.256Zm-6.677 8.554-1.049 5.149.407.083 1.049-5.15-.407-.082Zm-.845 4.982h-3.013v.416h3.013v-.416Zm-2.81.25 1.087-5.283-.407-.083-1.087 5.282.407.084Zm18.475-8.929h-.208v.208h.208v-.208Zm-.687-1.888-.144.15.004.003.14-.153Zm-3.757-.114.109.177h.001l-.11-.177Zm-1.392 1.354-.173-.114h-.001l.174.114Zm-.801 1.85.201.053v-.001l-.201-.052Zm-.095 3.318-.2.055.001.005.199-.06Zm.553 1.125-.168.123.006.007.162-.13Zm.954.763-.093.186h.002l.091-.186Zm2.555.076.076.193.003-.001-.079-.192Zm.973-.591.135.157.004-.003-.139-.154Zm.705-.877-.18-.104.18.104Zm.382-1.03v-.208h-.174l-.031.172.205.036Zm2.994 0 .197.063.087-.27h-.284v.207Zm-1.087 2.422-.176-.111-.001.002.177.109Zm-1.393 1.62.13.163h.001l-.131-.162Zm-1.716.878-.056-.2-.005.002.061.198Zm-6.522-1.258-.146.147.001.001.145-.148Zm-1.049-7.61.196.068-.196-.067Zm1.469-2.612-.159-.134.159.134Zm2.345-1.812-.089-.187h-.001l.09.187Zm5.302-.343.063-.198-.063.198Zm1.735.973-.138.154.004.004.134-.159Zm1.144 1.582-.191.08.001.002.19-.082Zm.382 2.174v.208h.204l.003-.204-.207-.004Zm-2.787 0c0-.876-.239-1.57-.754-2.04l-.28.305c.401.368.619.933.619 1.735h.415Zm-.749-2.037c-.49-.476-1.13-.706-1.899-.706v.415c.68 0 1.21.2 1.61.59l.289-.299Zm-1.899-.706c-.797 0-1.503.186-2.112.565l.219.352c.535-.333 1.163-.502 1.893-.502v-.416Zm-2.111.564a4.626 4.626 0 0 0-1.457 1.417l.347.228a4.207 4.207 0 0 1 1.327-1.291l-.217-.354Zm-1.458 1.418a6.462 6.462 0 0 0-.828 1.91l.402.105a6.015 6.015 0 0 1 .774-1.789l-.348-.226Zm-.827 1.91a7.919 7.919 0 0 0-.274 2.036h.415c0-.63.086-1.272.26-1.93l-.401-.106Zm-.274 2.036c0 .487.059.95.179 1.39l.4-.11a4.855 4.855 0 0 1-.164-1.28h-.415Zm.18 1.395c.134.44.328.837.584 1.188l.336-.245a3.486 3.486 0 0 1-.522-1.063l-.398.12Zm.59 1.195c.274.342.616.615 1.023.819l.185-.372a2.609 2.609 0 0 1-.884-.706l-.324.259Zm1.025.82c.429.207.931.306 1.502.306v-.415c-.523 0-.961-.09-1.321-.265l-.181.374Zm1.502.306a3.31 3.31 0 0 0 1.22-.224l-.152-.386c-.33.13-.686.195-1.068.195v.416Zm1.223-.225c.388-.16.731-.369 1.029-.626l-.271-.314a3.362 3.362 0 0 1-.916.556l.158.384Zm1.033-.63a3.82 3.82 0 0 0 .746-.927l-.36-.207a3.41 3.41 0 0 1-.665.828l.279.307Zm.746-.927a3.37 3.37 0 0 0 .406-1.097l-.409-.072a2.938 2.938 0 0 1-.357.962l.36.207Zm.202-.925h2.994v-.416h-2.994v.416Zm2.796-.271c-.301.94-.657 1.731-1.065 2.374l.351.222c.431-.68.8-1.504 1.109-2.47l-.395-.126Zm-1.066 2.376c-.397.644-.846 1.166-1.346 1.568l.261.324c.542-.437 1.021-.996 1.438-1.674l-.353-.218Zm-1.345 1.568a4.583 4.583 0 0 1-1.643.84l.112.399a4.994 4.994 0 0 0 1.79-.915l-.259-.324Zm-1.648.84a6.736 6.736 0 0 1-1.979.278v.415c.755 0 1.456-.098 2.101-.295l-.122-.397Zm-1.979.278c-1.896 0-3.331-.505-4.337-1.486l-.29.297c1.105 1.078 2.657 1.604 4.627 1.604v-.415Zm-4.336-1.485c-.991-.98-1.502-2.406-1.502-4.315h-.415c0 1.982.532 3.53 1.625 4.61l.292-.295Zm-1.502-4.315c0-1.084.168-2.11.503-3.079l-.392-.135a9.764 9.764 0 0 0-.526 3.214h.415Zm.503-3.079a7.892 7.892 0 0 1 1.431-2.546l-.317-.268a8.3 8.3 0 0 0-1.506 2.679l.392.135Zm1.431-2.546a6.923 6.923 0 0 1 2.278-1.76l-.181-.373a7.354 7.354 0 0 0-2.414 1.864l.317.27Zm2.277-1.759c.897-.43 1.902-.647 3.019-.647v-.415c-1.172 0-2.239.228-3.198.688l.179.374Zm3.019-.647c.769 0 1.478.106 2.129.315l.127-.396a7.347 7.347 0 0 0-2.256-.334v.415Zm2.129.315a4.528 4.528 0 0 1 1.661.93l.277-.31a4.944 4.944 0 0 0-1.811-1.016l-.127.396Zm1.665.933c.469.397.832.897 1.087 1.505l.383-.161a4.335 4.335 0 0 0-1.202-1.66l-.268.316Zm1.088 1.506c.253.591.377 1.286.364 2.09l.415.006c.013-.85-.117-1.604-.398-2.26l-.381.164Zm.572 1.885h-2.994v.415h2.994v-.415Z" fill="#727272"></path><path fill-rule="evenodd" clip-rule="evenodd" d="M70.688 4.904c-2.014.006-2.786.168-5.048 1.083a25.7 25.7 0 0 1-5.563 1.455c-1.487.181-2.226-.053-4.098-1.355-1.512-1.053-2.044-1.253-3.449-1.196a5.99 5.99 0 0 0-3 .71c-.854.474-1.243.898-1.949 2.301a16.115 16.115 0 0 0-1.508 3.574 30.013 30.013 0 0 1-2.215 5.008 8.38 8.38 0 0 1-.693.886 22.623 22.623 0 0 0-2.316 2.9 2.66 2.66 0 0 0-.447 1.541c-.088.6-.01 1.214.225 1.775.175.43.265.89.267 1.354-.011.439-.073.485-.764 1.053-.393.327-1.207.946-1.797 1.377a21.981 21.981 0 0 0-3.345 3.025c-1.772 1.871-2.135 2.482-2.323 3.928-.21 1.602.169 3.614 1.344 7.217.925 2.82 1.437 3.849 2.565 5.152a5.278 5.278 0 0 0 1.65 1.38c1.022.627 1.507.765 3.872 1.37a58.08 58.08 0 0 0 9.211 1.579c2.434.263 3.49.228 5.21-.182 1.84-.438 1.914-.442 6.006-.122 3.478.264 3.813.278 4.268.138 1.415-.465 2.796-1.546 4.355-3.422 1.559-1.876 2.008-2.533 2.534-3.863.229-.596.307-1.081.582-3.596.466-4.334.592-4.758 1.73-5.868.37-.37.697-.78.975-1.222.178-.39.485-.707.87-.9a1.66 1.66 0 0 1 1.165-.207c1.358.11 2.374-.268 3.627-1.346 1.75-1.504 2.507-2.72 3.233-5.23.213-.763.493-1.508.835-2.224 1.191-2.3 1.692-3.84 1.748-5.374.056-1.533-.051-1.638-2.3-4.267-1.542-1.8-1.968-2.358-2.193-2.899a8.039 8.039 0 0 0-2.27-2.744 11.33 11.33 0 0 0-4.078-2.167 38.044 38.044 0 0 0-6.916-.622Zm6.25 1.9c2.541.662 4.825 2.323 5.714 4.162a17.607 17.607 0 0 0 2.955 3.934 7.28 7.28 0 0 1 1.378 1.79c.3.921-.185 3.07-1.061 4.734a15.15 15.15 0 0 0-1.415 3.474 8.131 8.131 0 0 1-2.764 4.49 3.928 3.928 0 0 1-2.058 1.051 4.075 4.075 0 0 1-.913-.563 37.661 37.661 0 0 0-6.071-3.509 7.929 7.929 0 0 1-.976-.498c-.6-.436-.598-2.012-.029-5.092.57-3.079.663-4.912.358-6.93a8.281 8.281 0 0 0-1.222-3.151c-.97-1.305-2.898-2.29-5.376-2.734l-.735-.138 1.393-.569a9.876 9.876 0 0 1 5.076-.973l2.341.055c1.147.053 2.287.21 3.406.467Zm-22.367-.029 1.333.898a6.084 6.084 0 0 0 2.2 1.017 6.127 6.127 0 0 0 2.428.08 25.045 25.045 0 0 1 5.324.357 7.282 7.282 0 0 1 3.942 2.02 6.729 6.729 0 0 1 1.242 3.104 21.677 21.677 0 0 1-.356 6.063c-.175.94-.374 2.35-.436 3.137a4.652 4.652 0 0 0 .072 2.035c.282.952.617 1.218 2.24 1.997a42.153 42.153 0 0 1 4.815 2.703l.365.273-.457.242a6.324 6.324 0 0 0-.787.499l-.33.25-.744-.499a18.744 18.744 0 0 0-4.672-2.302 5.181 5.181 0 0 0-3.809.782 1.52 1.52 0 0 0-.707.723 5.522 5.522 0 0 1-1.879 1.983c-1.337.787-1.504.909-1.826 1.34-.322.432-.335.468-.572 2.43-.267 2.202-.497 3.352-.697 3.558-.193.15-.4.28-.62.388l-.47.241-.042-.23c.015-.498.068-.996.158-1.488.201-1.252.202-1.27-.007-1.462-.376-.358-1.969-.342-2.295.023-.175.195-.175.195-.28-.006-.105-.201-.22-.216-.945-.276-.725-.059-.879-.02-1.133.148l-.292.21-.25-.217a1.672 1.672 0 0 0-1.471-.258c-.308.125-.35.118-.7-.089a2.058 2.058 0 0 0-.896-.268 4.049 4.049 0 0 0-1.688.17c-.001.043-.127-.063-.281-.229a3.003 3.003 0 0 0-2.486-.661c-.215.061-.257.048-.248-.084a.598.598 0 0 0-.17-.39.613.613 0 0 0-.39-.183 1.101 1.101 0 0 0-.615.214c-.186.128-.34.214-.358.19a4.482 4.482 0 0 1-.111-.46 2.06 2.06 0 0 0-.306-.73c-.466-.648-1.847-1.079-2.422-.761-.26.138-.272.132-.52-.175a1.53 1.53 0 0 0-1.26-.632c-.262-.006-.51-.09-.54-.157a2.262 2.262 0 0 0-1.523-.596 1.485 1.485 0 0 1-1.082-.375 2.526 2.526 0 0 0-1.3-.537c-.206-.04-.105-.159.911-1.061a30.984 30.984 0 0 1 2.315-1.84c1.863-1.334 2.323-1.925 2.315-3.086a6.8 6.8 0 0 0-.306-1.5 5.183 5.183 0 0 1-.272-1.354c.014-.565.566-1.437 1.59-2.604 1.77-2.021 1.846-2.146 3.21-5.068.33-.729.61-1.478.842-2.242a16.817 16.817 0 0 1 1.58-3.735c.638-1.134.907-1.423 1.813-1.762a4.944 4.944 0 0 1 2.446-.249c.511.01 1.006.182 1.41.491Zm-1.459 1.77a3.69 3.69 0 0 0-1.681.646c-.367.286-.678.778-1.327 2.093a13.769 13.769 0 0 1-1.902 2.963c-.932 1.181-1.146 1.7-1.029 2.382.1.344.267.665.494.943.227.278.508.509.828.678.485.25 1.03.367 1.578.338a8.83 8.83 0 0 0 3.536-.397 3.255 3.255 0 0 0 1.387-1.585 32.567 32.567 0 0 0 1.408-4.931c.124-1.339-.17-2.032-1.115-2.584a3.557 3.557 0 0 0-2.176-.576v.03Zm10.12 1.891c-.973.097-2.296.547-2.574.925a.78.78 0 0 0 .07.905c.299.242.421.232 1.222-.092.332-.139.676-.25 1.027-.33l.306-.047-.306.318a35.546 35.546 0 0 0-2.88 3.728 7.723 7.723 0 0 0-.54 3.11c.028.329.02.66-.023.986 0 0-.236-.102-.45-.281l-.402-.323.035-1.413a5.164 5.164 0 0 1 .426-2.463c.522-1.407.526-1.576.088-1.857a.667.667 0 0 0-.903.219c-.215.46-.4.935-.553 1.419a6.945 6.945 0 0 0-.448 2.619c-.041 1.678-.01 1.943.62 2.608a4.582 4.582 0 0 0 2.137 1.164c2.373.803 4.11.622 5.371-.551a19.832 19.832 0 0 0 2.573-3.43 4.665 4.665 0 0 0 .029-3.928c-.88-2.211-2.794-3.514-4.825-3.304v.018Zm-10.564.542a16.318 16.318 0 0 1-1.902 2.963c-.85 1.063-1.018 1.444-1.11 2.483l-.062.769-.248-.078a1.631 1.631 0 0 1-.778-.62c-.134-.257.015-.602.87-1.653.798-.98 1.473-2.05 2.012-3.19.209-.438.443-.864.702-1.276.183-.23 1.015-.578 1.055-.45-.15.355-.33.697-.538 1.022v.03Zm-6.331 9.428c-.287.098-.551.252-.775.453a2.19 2.19 0 0 0-.529.72c-.103.232-.38 1.044-.605 1.79-.225.82-.551 1.608-.972 2.348a3.034 3.034 0 0 0-.618 1.79c-.054.367-.028.741.077 1.098a3.378 3.378 0 0 0 1.28 1.33c.295.185.65.254.996.192 1.467-.121 3.499-1.12 5.131-2.507 1.34-1.171 1.802-1.834 1.957-2.92a2.144 2.144 0 0 0-.518-2.028c-1.005-1.318-4.013-2.569-5.423-2.296l-.001.03Zm1.01 1.631a6.009 6.009 0 0 0-1.255 2.895 5.91 5.91 0 0 1-.57 1.346 4.825 4.825 0 0 0-.651 1.705c-.02.244-.082.483-.182.706a1.435 1.435 0 0 1-.31-.302c-.38-.467-.286-1.036.352-2.17a13.987 13.987 0 0 0 1.301-3.32c.307-1.076.42-1.194 1.048-1.18l.5.013-.233.307Zm24.21 8.016c.281.111.55.25.802.416.053.061-.062.27-.294.547-.628.719-2.328 3.115-2.69 3.738a5.496 5.496 0 0 0-.504 1.348c-.355 1.58-.434 1.795-.769 2.016-.335.22-.77.348-2.786.427-.72.016-1.44.075-2.152.177-.15.053-.307.08-.466.079 0 0 .065-.672.182-1.446.116-.773.245-1.8.28-2.201.077-.955.287-1.293.997-1.632 1.234-.572 2.595-1.833 2.951-2.673.162-.363.472-.59 1.243-.933a3.833 3.833 0 0 1 3.189.106l.017.03Zm3.012 1.612c.36.21.703.448 1.026.71.065.086-.1.317-.575.793a5.374 5.374 0 0 0-1.34 1.924 29.687 29.687 0 0 0-.835 5.215c-.03.898-.156 1.79-.376 2.663-.66 2-3.9 5.755-5.612 6.443l-.617.25-4.026-.265c-4.332-.278-4.265-.276-6.106.185-1.468.368-2.09.384-4.841.09-1.364-.142-3.103-.352-3.863-.472-2.541-.386-6.787-1.426-7.885-1.928-1.527-.704-2.606-1.993-3.492-4.169-.328-.814-1.357-3.92-1.341-4.07 0-.03.128.004.284.122.185.107.392.173.605.195.226.005.327.104.467.378.22.45.662.617 1.656.641l.738.018.27.668c.271.663.628 1.038 1.018 1.072.215-.026.423-.09.614-.19l.414-.207.174.371c.412.895 1.574 1.512 3.277 1.74.48.123.984.135 1.47.034.51-.15.618-.328.634-.983l.01-.428.184.221c.22.252.416.227.845-.106l.292-.227-.012.475c-.022.311.022.624.13.917.529 1.349 3.02 1.276 3.824-.155l.185-.314.132.316a1.5 1.5 0 0 0 .937.847c.367.047.738-.028 1.056-.213a1.63 1.63 0 0 0 .696-.81l.143-.352.251.216a1.528 1.528 0 0 0 1.403.262c.466-.211.841-.58 1.057-1.04.004-.18.083-.16.394.1a1.596 1.596 0 0 0 1.47.264c.223-.132.411-.313.551-.529.14-.216.227-.46.254-.716.007-.288.088-.34.728-.584a3.864 3.864 0 0 0 1.457-.934c.25-.14.526-.23.812-.263a19.873 19.873 0 0 1 3.215-.248c2.523-.109 3.065-.571 3.586-2.923.221-1.054.356-1.316 1.55-2.972 1.13-1.574 1.992-2.636 2.126-2.627.328.169.645.357.95.564l.036.031Zm-37.13.317c.348.249.354.237-.297.92-.244.252-.627.676-.816.949-.366.478-.378.484-.618.322a3.892 3.892 0 0 1-.462-.354l-.208-.198.423-.591c.88-1.34 1.29-1.582 1.942-1.085l.036.037Zm2.337.76c.083.068-.006.216-.367.533a8.06 8.06 0 0 0-.969 1.18c-.272.409-.554.727-.627.719a2.45 2.45 0 0 1-.958-.522 12.28 12.28 0 0 1 1.475-1.686c.38-.346.467-.38.881-.346.18.007.359.042.529.103l.036.019Zm1.92.816a.785.785 0 0 1 .24.427c.043.223-.083.407-.798 1.184-.464.513-.884.972-.928 1.013a3.327 3.327 0 0 1-1.402-.551c.203-.55.53-1.046.957-1.451.68-.839 1.411-1.062 1.895-.66l.036.038Zm2.673.738c.39.232.512.511.579 1.283l.047.567-.496.59-.49.59-.767-.127a11.97 11.97 0 0 1-1.45-.353l-.696-.222.665-.742c1.587-1.767 1.606-1.803 1.953-1.758.212.011.422.057.62.135l.035.037Zm-9.727.556c-.126.345-.228.699-.307 1.057-.157.683-.196.772-.264.56a8.36 8.36 0 0 1-.026-1.44l.03-1.202.332.381c.255.313.302.392.199.607l.036.037Zm11.618 1.956a19.984 19.984 0 0 0-.732 4.983c.02.456-.01.914-.094 1.364a8.583 8.583 0 0 1-2.736-.397c-.604-.249-1.247-.896-1.22-1.269.097-.284.268-.54.494-.74.257-.27.728-.813 1.042-1.178.314-.366 1.074-1.269 1.695-1.946 1.53-1.672 1.773-1.925 1.809-1.882a7.56 7.56 0 0 1-.318 1.027l.06.038Zm2.902-.418c.604.279.711.877.314 1.903-.444 1.193-2.368 3.788-2.525 3.453-.376-.833-.293-3.996.119-4.859.09-.203.217-.39.373-.55a2 2 0 0 1 1.684.016l.035.037Zm-13.104-.313a10.68 10.68 0 0 0-.186 1.373c-.078.931-.111 1.057-.258 1.041-.25-.006-.532-.422-.59-.814a8.182 8.182 0 0 1 .282-2.051l.093-.311.367.225c.326.153.343.189.257.482l.035.055Zm23.526 2.325-.162.868-.366-.008c-.689-.017-.707-.017-.64-.798.012-.286.066-.568.162-.838.332-.159.707-.211 1.071-.15.03-.01.005.29-.1.87l.035.056Zm-6.895-1.02c-.252.835-.61 1.636-1.065 2.382-.418.038-.839-.04-1.214-.228-.114-.086-.085-.26.195-1.24a8.15 8.15 0 0 1 .44-1.266c.08-.082.343-.088.866-.027.713.06.737.072.743.325l.035.055Zm4.29.964-.076.876-.356.088a5.71 5.71 0 0 1-.668.134l-.306.047.23-.957a6.38 6.38 0 0 1 .313-1.04.852.852 0 0 1 .502-.06l.432.01-.07.902Zm-2.196-.745c.224.33.214.48-.083 1.382l-.23.705-.79-.122a7.17 7.17 0 0 1-.826-.164c.198-.67.489-1.312.864-1.905a.678.678 0 0 1 .513-.196.684.684 0 0 1 .492.244l.06.056ZM37.69 36.453l.568.212-.028 1.142c-.014.602-.031 1.287.001 1.463l.041.326-.651-.052c-.835-.068-.918-.166-.931-1.111.02-.848.206-2.216.346-2.206.214.045.424.102.63.171l.024.055Zm3.58 1.289c.608.099 1.113.189 1.18.19.195.005.121.268-.26.903-.73 1.186-2.065 2.58-2.436 2.553-.372-.027-1.068-3.257-.792-4.062l.08-.24.604.238c.519.165 1.05.29 1.59.375l.035.043Zm18.143 3.147c-.082.864-.281 1.28-.641 1.29a.931.931 0 0 1-.456-.107 1.329 1.329 0 0 1-.268-1.258c.095-.395.127-.424.525-.487.858-.178.864-.172.805.519l.035.043Zm-2.445.206c-.188 1.2-.6 1.791-1.179 1.777-.482-.011-.63-.448-.573-1.53l.064-.835.703-.055c1.175-.159 1.115-.214.955.6l.03.043Zm-2.643.28c-.25 1.45-.665 2.253-1.113 2.332-.612.1-.82-.416-.753-1.877l.027-1.107.385-.033.544-.047c.204-.007.407-.002.61.015l.427.01-.127.707Zm-3.653-.352c.73.138.753.174.546 1.132-.276 1.33-.869 1.857-1.995 1.758-.755-.06-.933-.27-.872-1.038.087-.668.31-1.311.657-1.892.158-.249.195-.26.614-.178l1.05.218Z" fill="#fff"></path></svg>
