<svg width="72" height="77" viewBox="0 0 72 77" fill="none" xmlns="http://www.w3.org/2000/svg"><path fill-rule="evenodd" clip-rule="evenodd" d="M17.3781 2.81803C17.3771 2.07095 17.0716 1.35476 16.5288 0.826499C15.986 0.298234 15.2501 0.00101025 14.4824 0L2.8957 0C2.12771 0 1.39118 0.296899 0.848135 0.825383C0.305087 1.35387 2.66589e-06 2.07064 2.66589e-06 2.81803V14.094C-0.00051385 14.4642 0.0740307 14.8309 0.21937 15.173C0.364709 15.5151 0.577993 15.826 0.846986 16.0878C1.11598 16.3495 1.43539 16.5571 1.78695 16.6985C2.1385 16.84 2.51529 16.9125 2.8957 16.912H10.6568C11.4224 16.9171 12.1549 17.2166 12.6945 17.7452C13.234 18.2739 13.5368 18.9888 13.5368 19.7339V29.3144C13.5368 30.0622 13.8417 30.7793 14.3847 31.3084C14.9276 31.8375 15.6641 32.1353 16.4325 32.1363H24.2564C25.0243 32.1363 25.7609 32.4332 26.3039 32.9617C26.847 33.4901 27.1521 34.2069 27.1521 34.9543V41.8484C27.1521 42.5961 26.8471 43.3133 26.3042 43.8424C25.7612 44.3715 25.0247 44.6692 24.2564 44.6702H16.3828C15.6148 44.6702 14.8783 44.9671 14.3353 45.4956C13.7922 46.0241 13.4871 46.7409 13.4871 47.4883V58.7642C13.4882 59.5113 13.7936 60.2275 14.3364 60.7557C14.8792 61.284 15.6152 61.5812 16.3828 61.5822H24.272C25.04 61.5822 25.7766 61.8791 26.3196 62.4076C26.8627 62.9361 27.1677 63.6529 27.1677 64.4003V74.0739C27.1672 74.4443 27.2417 74.8111 27.387 75.1535C27.5323 75.4958 27.7455 75.8069 28.0145 76.069C28.2834 76.3311 28.6028 76.539 28.9544 76.6809C29.306 76.8227 29.6828 76.8958 30.0634 76.8958L68.935 77C69.704 77 70.4415 76.7027 70.9853 76.1735C71.5291 75.6443 71.8346 74.9266 71.8346 74.1781V62.8946C71.8346 62.1462 71.5291 61.4284 70.9853 60.8992C70.4415 60.37 69.704 60.0727 68.935 60.0727H33.5477C33.1673 60.0732 32.7905 60.0007 32.4389 59.8592C32.0874 59.7178 31.768 59.5102 31.499 59.2484C31.23 58.9867 31.0167 58.6758 30.8714 58.3337C30.726 57.9916 30.6515 57.6249 30.652 57.2547V49.4454C30.652 48.698 30.9571 47.9812 31.5001 47.4528C32.0432 46.9243 32.7797 46.6274 33.5477 46.6274H41.658C42.0384 46.6279 42.4152 46.5553 42.7667 46.4139C43.1183 46.2725 43.4377 46.0649 43.7067 45.8031C43.9757 45.5413 44.189 45.2305 44.3343 44.8884C44.4796 44.5462 44.5542 44.1796 44.5537 43.8093V34.3892C44.5537 33.6418 44.8588 32.925 45.4018 32.3965C45.9449 31.868 46.6814 31.5711 47.4494 31.5711H55.2693C55.6499 31.5716 56.0269 31.4991 56.3787 31.3577C56.7304 31.2163 57.0501 31.0088 57.3194 30.7471C57.5887 30.4854 57.8024 30.1746 57.9482 29.8324C58.0939 29.4903 58.1689 29.1235 58.1689 28.7531V20.0126C58.1674 19.6422 58.2409 19.2752 58.3852 18.9324C58.5296 18.5897 58.7419 18.2781 59.0101 18.0153C59.2783 17.7525 59.5972 17.5437 59.9483 17.4009C60.2995 17.2581 60.6762 17.1841 61.0568 17.1831H69.1043C69.8706 17.1841 70.6059 16.8891 71.1489 16.3629C71.6918 15.8367 71.9979 15.1223 72 14.3766V3.1006C72.0005 2.73039 71.926 2.36372 71.7806 2.02159C71.6353 1.67946 71.422 1.36861 71.153 1.10683C70.884 0.84505 70.5646 0.637495 70.2131 0.496053C69.8615 0.354612 69.4847 0.282064 69.1043 0.282567H57.5176C57.1372 0.282064 56.7604 0.354612 56.4089 0.496053C56.0573 0.637495 55.7379 0.84505 55.4689 1.10683C55.1999 1.36861 54.9866 1.67946 54.8413 2.02159C54.6959 2.36372 54.6214 2.73039 54.6219 3.1006V11.8373C54.6209 12.5843 54.3155 13.3005 53.7726 13.8288C53.2298 14.3571 52.4939 14.6543 51.7262 14.6553H43.6787C43.2981 14.6548 42.9211 14.7273 42.5694 14.8687C42.2176 15.0101 41.8979 15.2176 41.6286 15.4793C41.3593 15.7411 41.1456 16.0519 40.9999 16.394C40.8541 16.7362 40.7791 17.1029 40.7791 17.4733V26.8973C40.7791 27.6447 40.474 28.3615 39.931 28.89C39.3879 29.4185 38.6514 29.7154 37.8834 29.7154H33.8263C33.0586 29.7144 32.3227 29.4171 31.7799 28.8889C31.237 28.3606 30.9316 27.6444 30.9306 26.8973V18.0423C30.9316 17.2975 30.6297 16.5827 30.0908 16.0539C29.5519 15.5251 28.8198 15.2255 28.0545 15.2204H20.2738C19.8934 15.2209 19.5166 15.1484 19.165 15.0069C18.8135 14.8655 18.4941 14.658 18.2251 14.3962C17.9561 14.1344 17.7428 13.8235 17.5975 13.4814C17.4521 13.1393 17.3776 12.7726 17.3781 12.4024V2.81803Z" fill="#fff"></path></svg>