<svg width="20" height="20" viewBox="0 0 20 20" fill="none" xmlns="http://www.w3.org/2000/svg">
<circle cx="10" cy="10" r="9" fill="#E8BC31"/>
<path d="M9.90617 5.68822L6.56478 8.32852C6.56478 8.33151 6.56478 8.33601 6.56478 8.339V13.2063C6.56478 13.2811 6.62603 13.341 6.7026 13.341H8.14206C8.21863 13.341 8.27989 13.2811 8.27989 13.2063V10.9898C8.27989 10.5525 8.64435 10.196 9.0915 10.196H10.7607C11.2078 10.196 11.5723 10.5525 11.5723 10.9898V13.2063C11.5723 13.2811 11.6335 13.341 11.7101 13.341H13.1036C13.1802 13.341 13.2414 13.2811 13.2414 13.2063V8.339C13.2414 8.32852 13.2414 8.31953 13.243 8.31055L10.0823 5.69121C10.0317 5.64928 9.95671 5.64778 9.90617 5.68822ZM14.8815 8.80326L10.5172 5.18801C10.2201 4.9424 9.7852 4.93641 9.48199 5.17603L5.12531 8.61906C4.97984 8.73288 4.9584 8.94105 5.07478 9.08182C5.19116 9.22409 5.40402 9.24506 5.54797 9.13124L5.89099 8.86017V13.2063C5.89099 13.6436 6.25545 14 6.7026 14H8.14206C8.58922 14 8.95368 13.6436 8.95368 13.2063V10.9898C8.95368 10.9149 9.01493 10.855 9.0915 10.855H10.7607C10.8372 10.855 10.8985 10.9149 10.8985 10.9898V13.2063C10.8985 13.6436 11.2629 14 11.7101 14H13.1036C13.5508 14 13.9152 13.6436 13.9152 13.2063V8.86766L14.4451 9.30646C14.5079 9.35888 14.586 9.38434 14.6625 9.38434C14.7575 9.38434 14.8524 9.3454 14.9198 9.26753C15.0408 9.12975 15.0224 8.92158 14.8815 8.80326Z" fill="#272636"/>
</svg>
