<svg width="120" height="120" viewBox="0 0 120 120" fill="none" xmlns="http://www.w3.org/2000/svg">
<g id="Dai (DAI)">
<rect width="120" height="120" rx="8" fill="#B7FFE1" fill-opacity="0.08"/>
<rect x="0.5" y="0.5" width="119" height="119" rx="7.5" stroke="white" stroke-opacity="0.04"/>
<g id="Dai (DAI)_2">
<path id="Dai (DAI)_3" fill-rule="evenodd" clip-rule="evenodd" d="M41.0407 81.8152V81.9596L41.0337 81.9649V81.9892H57.8038C59.702 82.0153 61.5932 81.864 63.4582 81.5299C65.4225 81.1454 67.3363 80.54 69.1614 79.7188C69.9527 79.3522 70.7119 78.9093 71.4779 78.4624C71.6718 78.3492 71.8662 78.2358 72.0617 78.1233C72.9629 77.4813 73.8258 76.7854 74.647 76.046C76.8949 74.0139 78.6347 71.479 79.7221 68.6518C79.7952 68.3351 80.1048 68.1316 80.4232 68.1924H84.9903C85.3539 68.1924 85.4739 68.0707 85.4739 67.6601V64.7354C85.4983 64.4553 85.4983 64.1717 85.4739 63.8916C85.4739 63.8184 85.4927 63.7454 85.5115 63.6725C85.549 63.5272 85.5863 63.3823 85.4739 63.2374H81.6585C81.1975 63.2374 81.1975 63.1887 81.1975 62.7781C81.3297 61.3062 81.3297 59.8291 81.1975 58.3572C81.1731 57.9223 81.2705 57.9223 81.6081 57.9223H84.9433C85.3313 57.9223 85.4757 57.8249 85.4757 57.4386V53.4753C85.4637 53.2128 85.4576 53.0797 85.3879 53.0122C85.3163 52.9429 85.1776 52.9429 84.8963 52.9429H80.5711C80.2336 53.0003 79.91 52.7724 79.8491 52.4349C79.3532 51.1387 78.7217 49.8982 77.9614 48.7378C77.1959 47.593 76.3329 46.5178 75.376 45.5243C74.1042 44.2543 72.6758 43.1512 71.1239 42.2378C68.7838 40.879 66.2246 39.9273 63.5609 39.435C62.2682 39.1966 60.9616 39.0522 59.6463 39H41.5243C41.0407 39 41.0407 39.0974 41.0407 39.4837V52.508C41.0407 52.9673 40.9432 52.9673 40.5813 52.9673H35.3862C35 52.9673 35 53.0386 35 53.3048V57.5569C35 57.9432 35.12 57.9432 35.4106 57.9432H40.6544C41.0407 57.9432 41.0407 58.0145 41.0407 58.305V62.8477C41.0407 63.2583 40.9189 63.2583 40.6057 63.2583H35V67.8497C35 68.2359 35.12 68.2359 35.4106 68.2359H40.6544C41.0407 68.2359 41.0407 68.2829 41.0407 68.5978V74.2766V76.1852V81.8152ZM74.4119 52.5529C74.4537 52.6608 74.4537 52.7808 74.4119 52.8904H74.5285C74.4798 53.0348 74.2379 53.0836 74.2379 53.0836H46.3538C45.8945 53.0836 45.8945 52.9861 45.8945 52.6243V44.0469C45.8945 43.732 45.9432 43.5876 46.3051 43.5876H59.2807C60.6621 43.5754 62.0401 43.7199 63.3884 44.0226C66.0608 44.6559 68.547 45.9155 70.6383 47.6953C71.0558 48.0068 71.4281 48.3739 71.75 48.7827C72.432 49.4595 73.0305 50.2129 73.5385 51.0306C73.8761 51.509 74.1666 52.0188 74.4119 52.5529ZM75.5691 63.2322H60.8781H46.4758C46.182 63.2322 46.0372 63.2322 45.9658 63.1598C45.8965 63.0895 45.8965 62.9507 45.8965 62.6772V58.3764C45.8965 58.0371 45.9939 57.9171 46.3558 57.9171H75.5935C75.9084 57.9171 76.0528 58.0371 76.0528 58.3277C76.1728 59.8239 76.1728 61.3271 76.0528 62.8216C76.0302 63.2322 75.8823 63.2322 75.5691 63.2322ZM74.4121 68.2586C74.0015 68.2134 73.5874 68.2134 73.1768 68.2586H46.3801C46.0182 68.2586 45.8965 68.2586 45.8965 68.7423V77.1282C45.8965 77.5144 45.8965 77.6119 46.3801 77.6119H58.752C59.3435 77.6571 59.9351 77.6153 60.5144 77.4918C62.3099 77.3631 64.0758 76.9734 65.76 76.3314C66.3724 76.1191 66.9639 75.8425 67.5224 75.5102H67.6912C70.5915 74.0017 72.9472 71.6321 74.433 68.7231C74.433 68.7231 74.6018 68.3578 74.4121 68.2621V68.2586Z" fill="white"/>
</g>
</g>
</svg>
