<svg width="121" height="120" viewBox="0 0 121 120" fill="none" xmlns="http://www.w3.org/2000/svg">
<g id="Solana (SOL)">
<rect x="0.5" width="120" height="120" rx="8" fill="#B7FFE1" fill-opacity="0.08"/>
<rect x="1" y="0.5" width="119" height="119" rx="7.5" stroke="white" stroke-opacity="0.04"/>
<g id="Solana (SOL)_2">
<g id="Vector">
<path d="M44.473 70.243C44.7536 69.9549 45.1339 69.7923 45.5309 69.7907H82.2501C82.3986 69.7908 82.5437 69.8361 82.6671 69.9209C82.7904 70.0056 82.8865 70.1261 82.9432 70.2669C82.9998 70.4078 83.0145 70.5627 82.9852 70.7121C82.956 70.8614 82.8843 70.9986 82.7791 71.1061L75.526 78.5477C75.2457 78.8363 74.8652 78.999 74.4681 79H37.7489C37.6006 78.9995 37.4558 78.9539 37.3327 78.8691C37.2096 78.7843 37.1137 78.6639 37.0572 78.5233C37.0006 78.3826 36.9859 78.2279 37.0148 78.0787C37.0438 77.9294 37.1152 77.7923 37.22 77.6846L44.473 70.243Z" fill="url(#paint0_linear_134_3317)"/>
<path d="M44.4731 42.4523C44.7537 42.1642 45.134 42.0016 45.531 42H82.2502C82.3987 42.0001 82.5438 42.0454 82.6672 42.1302C82.7905 42.2149 82.8866 42.3354 82.9433 42.4762C82.9999 42.617 83.0145 42.7719 82.9853 42.9213C82.9561 43.0707 82.8844 43.2078 82.7791 43.3153L75.5244 50.7533C75.244 51.042 74.8635 51.2047 74.4664 51.2057H37.749C37.6007 51.2054 37.4558 51.16 37.3326 51.0753C37.2095 50.9906 37.1135 50.8703 37.0569 50.7296C37.0003 50.589 36.9856 50.4343 37.0146 50.285C37.0437 50.1358 37.1152 49.9988 37.2201 49.8912L44.4731 42.4523Z" fill="url(#paint1_linear_134_3317)"/>
<path d="M75.526 56.26C75.2457 55.9713 74.8652 55.8086 74.4681 55.8076H37.7489C37.6006 55.8079 37.4557 55.8533 37.3325 55.938C37.2094 56.0227 37.1134 56.143 37.0568 56.2837C37.0002 56.4243 36.9855 56.579 37.0145 56.7283C37.0436 56.8775 37.1151 57.0145 37.22 57.1221L44.4748 64.561C44.7554 64.8491 45.1357 65.0117 45.5327 65.0133H82.2501C82.3986 65.0132 82.5437 64.9679 82.6671 64.8831C82.7905 64.7984 82.8865 64.6779 82.9432 64.5371C82.9998 64.3963 83.0145 64.2413 82.9852 64.092C82.956 63.9426 82.8843 63.8055 82.7791 63.6979L75.526 56.26Z" fill="url(#paint2_linear_134_3317)"/>
</g>
</g>
</g>
<defs>
<linearGradient id="paint0_linear_134_3317" x1="78.7422" y1="-87.5073" x2="-18.8323" y2="-42.1722" gradientUnits="userSpaceOnUse">
<stop stop-color="#00FFA3"/>
<stop offset="1" stop-color="#DC1FFF"/>
</linearGradient>
<linearGradient id="paint1_linear_134_3317" x1="67.6321" y1="0.218651" x2="-29.9526" y2="45.5379" gradientUnits="userSpaceOnUse">
<stop stop-color="#00FFA3"/>
<stop offset="1" stop-color="#DC1FFF"/>
</linearGradient>
<linearGradient id="paint2_linear_134_3317" x1="73.1518" y1="34.5612" x2="46.6961" y2="83.944" gradientUnits="userSpaceOnUse">
<stop stop-color="#00FFA3"/>
<stop offset="1" stop-color="#DC1FFF"/>
</linearGradient>
</defs>
</svg>
