<svg width="20" height="20" viewBox="0 0 20 20" fill="none" xmlns="http://www.w3.org/2000/svg">
<circle cx="10" cy="10" r="9" fill="#E8BC31"/>
<path d="M10 15.25C8.5 15.25 7 14.2 7 12.25C7 12.025 7.15 11.875 7.375 11.875C7.6 11.875 7.75 12.025 7.75 12.25C7.75 14.05 9.25 14.5 10 14.5C11.425 14.5 12.25 13.675 12.25 12.25C12.25 10.9 11.275 10.45 9.775 10C8.425 9.55 7 9.1 7 7.375C7 5.8 8.2 4.75 10 4.75C11.875 4.75 13 6.1 13 7.375C13 7.6 12.85 7.75 12.625 7.75C12.4 7.75 12.25 7.6 12.25 7.375C12.25 6.475 11.425 5.5 10 5.5C8.65 5.5 7.75 6.25 7.75 7.375C7.75 8.5 8.575 8.8 10 9.25C11.35 9.7 13 10.225 13 12.25C13 14.05 11.8 15.25 10 15.25Z" fill="#231815" stroke="black"/>
<path d="M10 4.5C9.775 4.5 9.625 4.35 9.625 4.125V3.375C9.625 3.15 9.775 3 10 3C10.225 3 10.375 3.15 10.375 3.375V4.125C10.375 4.35 10.225 4.5 10 4.5Z" fill="#231815" stroke="black"/>
<path d="M10 17C9.775 17 9.625 16.85 9.625 16.625V15.875C9.625 15.65 9.775 15.5 10 15.5C10.225 15.5 10.375 15.65 10.375 15.875V16.625C10.375 16.85 10.225 17 10 17Z" fill="#231815" stroke="black"/>
</svg>
